{"title":"Elysium.cam.mkv.zeropete.mkv","uid":8890650,"size":1377791565,"categoryP":"video","categoryS":"movies","magnet":"?xt=urn:btih:70c42c4c7b445ab63be41fe8127db290e3d7f256&amp;dn=Elysium.cam.mkv.zeropete.mkv&amp;tr=udp%3A%2F%2Ftracker.openbittorrent.com%3A80&amp;tr=udp%3A%2F%2Fopen.demonii.com%3A1337&amp;tr=udp%3A%2F%2Ftracker.coppersurfer.tk%3A6969&amp;tr=udp%3A%2F%2Fexodus.desync.com%3A6969","seeders":1,"leechers":0,"uploader":"zeropete","files":1,"time":1378576020,"description":"Complete name : Elysium Avi-muxedElysium.cam-muxed.mkv.zeropete.mkv\nFormat : Matroska\nFormat version : Version 2\nFile size : 1.28 GiB\nDuration : 1h 41mn\nOverall bit rate : 1 806 Kbps\nEncoded date : UTC 2013-09-06 05:26:27\nWriting application : mkvmerge v6.2.0 ('Promised Land') built on Apr 28 2013 12:22:01\nWriting library : libebml v1.3.0 + libmatroska v1.4.0\n\nVideo\nID : 1\nFormat : AVC\nFormat/Info : Advanced Video Codec\nFormat profile : &lt;a class=&quot;__cf_email__&quot; href=&quot;/cdn-cgi/l/email-protection&quot; data-cfemail=&quot;347c5d535c7478071a04&quot;&gt;[email&amp;#160;protected]&lt;/a&gt;&lt;script cf-hash='f9e31' type=&quot;text/javascript&quot;&gt;\n/* &lt;![CDATA[ */!function(){try{var t=&quot;currentScript&quot;in document?document.currentScript:function(){for(var t=document.getElementsByTagName(&quot;script&quot;),e=t.length;e--;)if(t[e].getAttribute(&quot;cf-hash&quot;))return t[e]}();if(t&amp;&amp;t.previousSibling){var e,r,n,i,c=t.previousSibling,a=c.getAttribute(&quot;data-cfemail&quot;);if(a){for(e=&quot;&quot;,r=parseInt(a.substr(0,2),16),n=2;a.length-n;n+=2)i=parseInt(a.substr(n,2),16)^r,e+=String.fromCharCode(i);e=document.createTextNode(e),c.parentNode.replaceChild(e,c)}}}catch(u){}}();/* ]]&gt; */&lt;/script&gt;\nFormat settings, CABAC : Yes\nFormat settings, ReFrames : 4 frames\nCodec ID : V_MPEG4/ISO/AVC\nDuration : 1h 41mn\nBit rate : 1 130 Kbps\nWidth : 640 pixels\n\n\nHeight : 336 pixels\nDisplay aspect ratio : 1.905\nFrame rate mode : Constant\nFrame rate : 25.000 fps\nColor space : YUV\nChroma subsampling : 4:2:0\nBit depth : 8 bits\nScan type : Progressive\nBits/(Pixel*Frame) : 0.210\nStream size : 822 MiB (63%)\nWriting library : x264 core 133 r2334 a3ac64b\nEncoding settings : cabac=1 // deblock=1:0:0 / analyse=0x3:0x113 / me=hex / subme=7 / psy=1 / psy_rd=1.00:0.00 // me_range=16 / chroma_me=1 / trellis=1 / 8x8dct=1 / cqm=0 / deadzone=21,11 / fast_pskip=1 / chroma_qp_offset=-2 / threads=6 / lookahead_threads=1 / sliced_threads=0 / nr=0 / decimate=1 / interlaced=0 / bluray_compat=0 / constrained_intra=0 / bframes=3 / b_pyramid=2 / b_adapt=1 / b_bias=0 / direct=1 / weightb=1 / open_gop=0 / weightp=2 / keyint=250 / keyint_min=24 / scenecut=40 / intra_refresh=0 / rc_lookahead=40 / rc=crf / mbtree=1 / crf=18.0 / qcomp=0.60 / qpmin=0 / qpmax=69 / qpstep=4 / ip_ratio=1.40 / aq=1:1.00\nDefault : Yes\nForced : No\n\nAudio\nID : 2\nFormat : AC-3\nFormat/Info : Audio Coding 3\nMode extension : CM (complete main)\nFormat settings, Endianness : Big\nCodec ID : A_AC3\nDuration : 1h 41mn\nBit rate mode : Constant\nBit rate : 640 Kbps\nChannel(s) : 2 channels\nChannel positions : Front: L R\nSampling rate : 48.0 KHz\nBit depth : 16 bits\nCompression mode : Lossy\nStream size : 466 MiB (35%)\nDefault : Yes\nForced : No\n\nSCREENS &lt;a href=&quot;\nhttp://i.imgur.com/PpZHFtm.png&quot; rel=&quot;nofollow&quot; target=&quot;_NEW&quot;&gt;\nhttp://i.imgur.com/PpZHFtm.png&lt;/a&gt; &lt;a href=&quot;\nhttp://i.imgur.com/iGIG4YO.png&quot; rel=&quot;nofollow&quot; target=&quot;_NEW&quot;&gt;\nhttp://i.imgur.com/iGIG4YO.png&lt;/a&gt; &lt;a href=&quot;\nhttp://i.imgur.com/wVpefHr.png&quot; rel=&quot;nofollow&quot; target=&quot;_NEW&quot;&gt;\nhttp://i.imgur.com/wVpefHr.png&lt;/a&gt; &lt;a href=&quot;\nhttp://i.imgur.com/VQvOJK0.png&quot; rel=&quot;nofollow&quot; target=&quot;_NEW&quot;&gt;\nhttp://i.imgur.com/VQvOJK0.png&lt;/a&gt; &lt;a href=&quot;\nhttp://i.imgur.com/kBafsSe.png&quot; rel=&quot;nofollow&quot; target=&quot;_NEW&quot;&gt;\nhttp://i.imgur.com/kBafsSe.png&lt;/a&gt; &lt;a href=&quot;\nhttp://i.imgur.com/rO3J7gs.png&quot; rel=&quot;nofollow&quot; target=&quot;_NEW&quot;&gt;\nhttp://i.imgur.com/rO3J7gs.png&lt;/a&gt; &lt;a href=&quot;\nhttp://i.imgur.com/KjACjVi.png&quot; rel=&quot;nofollow&quot; target=&quot;_NEW&quot;&gt;\nhttp://i.imgur.com/KjACjVi.png&lt;/a&gt;","torrent":{"xt":"urn:btih:70c42c4c7b445ab63be41fe8127db290e3d7f256","amp;dn":"Elysium.cam.mkv.zeropete.mkv","amp;tr":["udp%3A%2F%2Ftracker.openbittorrent.com%3A80","udp%3A%2F%2Fopen.demonii.com%3A1337","udp%3A%2F%2Ftracker.coppersurfer.tk%3A6969","udp%3A%2F%2Fexodus.desync.com%3A6969"],"infoHash":"70c42c4c7b445ab63be41fe8127db290e3d7f256","infoHashBuffer":{"type":"Buffer","data":[112,196,44,76,123,68,90,182,59,228,31,232,18,125,178,144,227,215,242,86]},"announce":[],"urlList":[]}}